<svg width="20" height="19" viewBox="0 0 20 19" fill="none" xmlns="http://www.w3.org/2000/svg">
<path fill-rule="evenodd" clip-rule="evenodd" d="M10 3.36459C9.67033 3.36459 9.38775 3.07001 9.38775 2.72635V0.836165C9.38775 0.492495 9.67033 0.197922 10 0.197922C10.3297 0.197922 10.6122 0.492495 10.6122 0.836165V2.72635C10.6122 3.07001 10.3297 3.36459 10 3.36459ZM6.40172 5.95209C7.31472 5.10209 8.60365 4.55209 10 4.55209C11.3963 4.55209 12.6853 5.07709 13.5983 5.95209C14.5113 6.80209 15.102 8.00209 15.102 9.30209C15.102 10.6021 14.5113 11.8021 13.5983 12.6521C12.6853 13.5021 11.3963 14.0521 10 14.0521C8.60365 14.0521 7.31472 13.5271 6.40172 12.6521C5.48872 11.8021 4.89796 10.6021 4.89796 9.30209C4.89796 8.00209 5.46187 6.80209 6.40172 5.95209ZM3.0593 3.71001L4.54178 5.14771C4.83827 5.4091 5.26954 5.4091 5.51213 5.14771C5.78167 4.88631 5.78167 4.46807 5.51213 4.20667L4.02965 2.76897C3.76011 2.50757 3.32884 2.50757 3.0593 2.76897C2.78976 3.03037 2.78976 3.44861 3.0593 3.71001ZM0.658124 8.90625H2.60718C2.96156 8.90625 3.26531 9.18029 3.26531 9.5C3.26531 9.81972 2.96156 10.0938 2.60718 10.0938H0.658124C0.303749 10.0938 0 9.81972 0 9.5C0 9.18029 0.303749 8.90625 0.658124 8.90625ZM5.51213 13.8523C5.24259 13.5909 4.81132 13.5909 4.54178 13.8523L3.0593 15.29C2.78976 15.5514 2.78976 15.9696 3.0593 16.231C3.32884 16.4924 3.76011 16.4924 4.02965 16.231L5.51213 14.7933C5.78167 14.5319 5.78167 14.1137 5.51213 13.8523ZM10 15.6354C10.3297 15.6354 10.6122 15.93 10.6122 16.2737V18.1638C10.6122 18.5075 10.3297 18.8021 10 18.8021C9.67033 18.8021 9.38775 18.5075 9.38775 18.1638V16.2737C9.38775 15.93 9.67033 15.6354 10 15.6354ZM16.9407 15.29L15.4582 13.8523C15.1617 13.5909 14.7305 13.5909 14.4879 13.8523C14.2183 14.1137 14.2183 14.5319 14.4879 14.7933L15.9704 16.231C16.2399 16.4924 16.6712 16.4924 16.9407 16.231C17.2102 15.9696 17.2102 15.5514 16.9407 15.29ZM16.7347 9.5C16.7347 9.18029 17.0384 8.90625 17.3928 8.90625H19.3419C19.6963 8.90625 20 9.18029 20 9.5C20 9.81972 19.6963 10.0938 19.3419 10.0938H17.3928C17.0384 10.0938 16.7347 9.81972 16.7347 9.5ZM14.4879 5.14771C14.7574 5.4091 15.1887 5.4091 15.4582 5.14771L16.9407 3.71001C17.2102 3.44861 17.2102 3.03037 16.9407 2.76897C16.6712 2.50757 16.2399 2.50757 15.9704 2.76897L14.4879 4.20667C14.2183 4.46807 14.2183 4.88631 14.4879 5.14771Z" fill="white"/>
</svg>
